<svg width="40" height="20" viewBox="0 0 40 20" fill="none" xmlns="http://www.w3.org/2000/svg">
<path d="M35 20V12H40V12.8367H35.9767V15.5301H39.8605V16.3668H35.9767V19.1633H40V20H35Z" fill="black"/>
<path d="M29.3523 20L27 12H28.0114L29.1364 16L29.9886 19.0258H30.0455L30.8977 16L32.0227 12H33L30.6477 20H29.3523Z" fill="black"/>
<path d="M22 20V12H23.012V19.1633H27V20H22Z" fill="black"/>
<path d="M17 20C16.4754 20 16.0246 19.9114 15.6475 19.7341C15.2705 19.5494 14.959 19.2872 14.7131 18.9474C14.4672 18.6076 14.2869 18.1902 14.1721 17.6953C14.0574 17.2004 14 16.6353 14 16C14 15.3721 14.0574 14.8107 14.1721 14.3158C14.2869 13.8135 14.4672 13.3924 14.7131 13.0526C14.959 12.7128 15.2705 12.4543 15.6475 12.277C16.0246 12.0923 16.4754 12 17 12C17.5246 12 17.9754 12.0923 18.3525 12.277C18.7295 12.4543 19.041 12.7128 19.2869 13.0526C19.5328 13.3924 19.7131 13.8135 19.8279 14.3158C19.9426 14.8107 20 15.3721 20 16C20 16.6353 19.9426 17.2004 19.8279 17.6953C19.7131 18.1902 19.5328 18.6076 19.2869 18.9474C19.041 19.2872 18.7295 19.5494 18.3525 19.7341C17.9754 19.9114 17.5246 20 17 20ZM17 19.1911C17.3443 19.1911 17.6352 19.132 17.873 19.0139C18.1107 18.8883 18.3074 18.7147 18.4631 18.4931C18.6189 18.2715 18.7295 18.0055 18.7951 17.6953C18.8689 17.3777 18.9057 17.0231 18.9057 16.6316V15.3684C18.9057 14.9843 18.8689 14.6334 18.7951 14.3158C18.7295 13.9982 18.6189 13.7285 18.4631 13.5069C18.3074 13.2853 18.1107 13.1154 17.873 12.9972C17.6352 12.8717 17.3443 12.8089 17 12.8089C16.6557 12.8089 16.3648 12.8717 16.127 12.9972C15.8893 13.1154 15.6926 13.2853 15.5369 13.5069C15.3811 13.7285 15.2664 13.9982 15.1926 14.3158C15.127 14.6334 15.0943 14.9843 15.0943 15.3684V16.6316C15.0943 17.0231 15.127 17.3777 15.1926 17.6953C15.2664 18.0055 15.3811 18.2715 15.5369 18.4931C15.6926 18.7147 15.8893 18.8883 16.127 19.0139C16.3648 19.132 16.6557 19.1911 17 19.1911Z" fill="black"/>
<path d="M9.35227 20L7 12H8.01136L9.13636 16L9.98864 19.0258H10.0455L10.8977 16L12.0227 12H13L10.6477 20H9.35227Z" fill="black"/>
<path d="M0 20V12H5V12.8367H0.976744V15.5301H4.86046V16.3668H0.976744V19.1633H5V20H0Z" fill="black"/>
<rect width="40" height="11" rx="2" fill="white"/>
<path d="M32 1H34.1715C35.1218 1 35.8307 1.37822 36.2984 2.13467C36.7661 2.89112 37 4.01289 37 5.5C37 6.98711 36.7661 8.10888 36.2984 8.86533C35.8307 9.62178 35.1218 10 34.1715 10H32V1ZM34.1269 9.05874C34.7506 9.05874 35.2183 8.80946 35.5301 8.31089C35.8493 7.81232 36.0089 7.10745 36.0089 6.19628V4.80372C36.0089 3.89255 35.8493 3.18768 35.5301 2.68911C35.2183 2.19054 34.7506 1.94126 34.1269 1.94126H32.9354V9.05874H34.1269Z" fill="#FF6A3D"/>
<path d="M25.9432 2.37966H25.8636V10H25V1H26.3523L29.0568 8.54298H29.1364V1H30V10H28.6477L25.9432 2.37966Z" fill="#FF6A3D"/>
<path d="M22.0093 10L21.3525 7.4341H18.6252L17.9685 10H17L19.3822 1H20.6178L23 10H22.0093ZM20.039 2.14756H19.9388L18.8479 6.49284H21.1299L20.039 2.14756Z" fill="#FF6A3D"/>
<path d="M10.915 10H10V1H12.7669C13.4713 1 14.0087 1.22779 14.3791 1.68338C14.7495 2.13897 14.9346 2.77507 14.9346 3.59169C14.9346 4.32235 14.7749 4.90688 14.4553 5.34527C14.1358 5.78367 13.671 6.03725 13.061 6.10602L15 10H13.976L12.1242 6.15759H10.915V10ZM12.7451 5.24212C13.13 5.24212 13.4277 5.13037 13.6383 4.90688C13.8562 4.67479 13.9651 4.34814 13.9651 3.92693V3.25645C13.9651 2.83524 13.8562 2.51289 13.6383 2.2894C13.4277 2.05731 13.13 1.94126 12.7451 1.94126H10.915V5.24212H12.7451Z" fill="#FF6A3D"/>
<path d="M3 1H5.6044C6.26374 1 6.78022 1.2106 7.15385 1.6318C7.52747 2.05301 7.71429 2.61605 7.71429 3.32092C7.71429 3.86246 7.60073 4.28797 7.37363 4.59742C7.15385 4.90688 6.86813 5.12607 6.51648 5.25501V5.2937C6.94872 5.41404 7.30403 5.64183 7.58242 5.97708C7.86081 6.30372 8 6.7808 8 7.40831C8 7.76934 7.94872 8.10888 7.84615 8.42693C7.74359 8.74499 7.59707 9.02006 7.40659 9.25215C7.22344 9.48424 7.00366 9.66905 6.74725 9.80659C6.49817 9.93553 6.22711 10 5.93407 10H3V1ZM5.65934 9.05874C6.08425 9.05874 6.41758 8.94699 6.65934 8.7235C6.9011 8.5 7.02198 8.15616 7.02198 7.69198V7.16332C7.02198 6.70774 6.9011 6.36819 6.65934 6.1447C6.41758 5.91261 6.08425 5.79656 5.65934 5.79656H3.92308V9.05874H5.65934ZM5.50549 4.90688C5.89377 4.90688 6.1978 4.80802 6.41758 4.61032C6.63736 4.40401 6.74725 4.09456 6.74725 3.68195V3.17908C6.74725 2.76648 6.63736 2.45702 6.41758 2.25072C6.1978 2.04441 5.89377 1.94126 5.50549 1.94126H3.92308V4.90688H5.50549Z" fill="#FF6A3D"/>
</svg>
