<svg width="225" height="122" viewBox="0 0 225 122" fill="none" xmlns="http://www.w3.org/2000/svg">
<path d="M196.875 121.996V77.1797H225V81.8668H202.369V96.9552H224.215V101.642H202.369V117.309H225V121.996H196.875Z" fill="black"/>
<path d="M165.107 121.996L151.875 77.1797H157.564L163.892 99.5877L168.686 116.538H169.006L173.8 99.5877L180.128 77.1797H185.625L172.393 121.996H165.107Z" fill="black"/>
<path d="M123.75 121.996V77.1797H129.443V117.309H151.875V121.996H123.75Z" fill="black"/>
<path d="M95.6252 121.996C92.6744 121.996 90.1386 121.499 88.0177 120.506C85.8967 119.471 84.1447 118.002 82.7615 116.099C81.3783 114.195 80.364 111.857 79.7185 109.085C79.073 106.312 78.7502 103.146 78.7502 99.5877C78.7502 96.0703 79.073 92.9253 79.7185 90.1527C80.364 87.3388 81.3783 84.9801 82.7615 83.0765C84.1447 81.173 85.8967 79.7246 88.0177 78.7315C90.1386 77.697 92.6744 77.1797 95.6252 77.1797C98.5761 77.1797 101.112 77.697 103.233 78.7315C105.354 79.7246 107.106 81.173 108.489 83.0765C109.872 84.9801 110.887 87.3388 111.532 90.1527C112.177 92.9253 112.5 96.0703 112.5 99.5877C112.5 103.146 112.177 106.312 111.532 109.085C110.887 111.857 109.872 114.195 108.489 116.099C107.106 118.002 105.354 119.471 103.233 120.506C101.112 121.499 98.5761 121.996 95.6252 121.996ZM95.6252 117.464C97.5617 117.464 99.1985 117.133 100.536 116.471C101.873 115.768 102.979 114.795 103.855 113.554C104.731 112.312 105.354 110.823 105.723 109.085C106.138 107.305 106.345 105.319 106.345 103.126V96.0496C106.345 93.8978 106.138 91.9321 105.723 90.1527C105.354 88.3733 104.731 86.8629 103.855 85.6215C102.979 84.38 101.873 83.4283 100.536 82.7662C99.1985 82.0627 97.5617 81.7109 95.6252 81.7109C93.6888 81.7109 92.052 82.0627 90.7149 82.7662C89.3778 83.4283 88.2712 84.38 87.3952 85.6215C86.5192 86.8629 85.8737 88.3733 85.4587 90.1527C85.0899 91.9321 84.9055 93.8978 84.9055 96.0496V103.126C84.9055 105.319 85.0899 107.305 85.4587 109.085C85.8737 110.823 86.5192 112.312 87.3952 113.554C88.2712 114.795 89.3778 115.768 90.7149 116.471C92.052 117.133 93.6888 117.464 95.6252 117.464Z" fill="black"/>
<path d="M52.6065 121.996L39.375 77.1797H45.0639L51.392 99.5877L56.1861 116.538H56.5057L61.2997 99.5877L67.6278 77.1797H73.125L59.8935 121.996H52.6065Z" fill="black"/>
<path d="M0 121.996V77.1797H28.125V81.8668H5.49418V96.9552H27.3401V101.642H5.49418V117.309H28.125V121.996H0Z" fill="black"/>
<path d="M180 5.60547H192.215C197.56 5.60547 201.548 7.72428 204.179 11.9619C206.81 16.1995 208.125 22.4837 208.125 30.8145C208.125 39.1452 206.81 45.4294 204.179 49.6671C201.548 53.9047 197.56 56.0235 192.215 56.0235H180V5.60547ZM191.964 50.7505C195.472 50.7505 198.103 49.354 199.857 46.5611C201.652 43.7681 202.55 39.8194 202.55 34.715V26.9139C202.55 21.8095 201.652 17.8609 199.857 15.0679C198.103 12.2749 195.472 10.8784 191.964 10.8784H185.262V50.7505H191.964Z" fill="#FF6A3D"/>
<path d="M145.93 13.3343H145.483V56.0235H140.625V5.60547H148.232L163.445 47.8613H163.892V5.60547H168.75V56.0235H161.143L145.93 13.3343Z" fill="#FF6A3D"/>
<path d="M123.802 56.0235L120.108 41.6493H104.767L101.073 56.0235H95.625L109.025 5.60547H115.975L129.375 56.0235H123.802ZM112.719 12.0341H112.156L106.019 36.3763H118.856L112.719 12.0341Z" fill="#FF6A3D"/>
<path d="M61.3971 56.0235H56.25V5.60547H71.8137C75.7761 5.60547 78.799 6.88157 80.8824 9.43377C82.9657 11.986 84.0074 15.5494 84.0074 20.1241C84.0074 24.2173 83.1087 27.4918 81.3113 29.9477C79.5139 32.4036 76.8995 33.8241 73.4681 34.2094L84.375 56.0235H78.6152L68.1985 34.4983H61.3971V56.0235ZM71.6912 29.3698C73.8562 29.3698 75.531 28.7438 76.7157 27.4918C77.9412 26.1916 78.5539 24.3617 78.5539 22.0022V18.2461C78.5539 15.8865 77.9412 14.0807 76.7157 12.8287C75.531 11.5285 73.8562 10.8784 71.6912 10.8784H61.3971V29.3698H71.6912Z" fill="#FF6A3D"/>
<path d="M16.875 5.60547H31.5247C35.2335 5.60547 38.1387 6.78526 40.2404 9.14484C42.342 11.5044 43.3929 14.6586 43.3929 18.6072C43.3929 21.641 42.7541 24.0247 41.4766 25.7582C40.2404 27.4918 38.6332 28.7197 36.6552 29.4421V29.6588C39.0865 30.3329 41.0852 31.609 42.6511 33.4871C44.217 35.3169 45 37.9895 45 41.5048C45 43.5273 44.7115 45.4294 44.1346 47.2112C43.5577 48.9929 42.7335 50.5338 41.6621 51.834C40.6319 53.1342 39.3956 54.1695 37.9533 54.94C36.5522 55.6623 35.0275 56.0235 33.3791 56.0235H16.875V5.60547ZM31.8338 50.7505C34.2239 50.7505 36.0989 50.1245 37.4588 48.8725C38.8187 47.6205 39.4986 45.6943 39.4986 43.0939V40.1324C39.4986 37.5802 38.8187 35.6781 37.4588 34.4261C36.0989 33.1259 34.2239 32.4758 31.8338 32.4758H22.0673V50.7505H31.8338ZM30.9684 27.4918C33.1525 27.4918 34.8626 26.938 36.0989 25.8305C37.3352 24.6747 37.9533 22.9412 37.9533 20.6297V17.8127C37.9533 15.5013 37.3352 13.7677 36.0989 12.612C34.8626 11.4563 33.1525 10.8784 30.9684 10.8784H22.0673V27.4918H30.9684Z" fill="#FF6A3D"/>
</svg>
